<svg width="123" height="13" viewBox="0 0 123 13" fill="none" xmlns="http://www.w3.org/2000/svg">
<path d="M6.24 12.224C2.88 12.224 0.64 9.712 0.64 6.272C0.64 2.832 2.88 0.335999 6.24 0.335999C9.6 0.335999 11.84 2.832 11.84 6.272C11.84 9.712 9.6 12.224 6.24 12.224ZM6.24 10.944C9.12 10.944 10.4 8.736 10.4 6.272C10.4 3.808 9.12 1.616 6.24 1.616C3.36 1.616 2.08 3.808 2.08 6.272C2.08 8.736 3.36 10.944 6.24 10.944ZM17.5884 5.328C20.1644 5.968 21.8444 6.4 21.8444 9.008C21.8444 10.672 20.6124 12.224 17.7164 12.224C15.0124 12.224 12.9164 10.784 12.7564 8.16H14.1964C14.3564 9.728 15.3164 10.944 17.7164 10.944C19.7004 10.944 20.4044 10.032 20.4044 9.008C20.4044 7.44 19.5564 7.152 16.9964 6.56C15.2844 6.16 13.2364 5.568 13.2364 3.344C13.2364 1.536 14.6284 0.335999 17.1564 0.335999C19.5884 0.335999 21.2844 1.584 21.4764 3.952H20.0364C19.8284 2.416 18.9644 1.616 17.1564 1.616C15.5404 1.616 14.6764 2.24 14.6764 3.184C14.6764 4.704 15.9084 4.912 17.5884 5.328ZM31.7 4.336C31.492 3.248 30.66 1.616 28.276 1.616C25.556 1.616 24.42 3.968 24.42 6.272C24.42 8.592 25.556 10.944 28.276 10.944C30.676 10.944 31.604 9.312 31.7 7.872H33.14C32.884 10.4 31.092 12.224 28.276 12.224C25.14 12.224 22.98 9.728 22.98 6.272C22.98 2.832 25.14 0.335999 28.276 0.335999C31.076 0.335999 32.868 2.16 33.14 4.336H31.7ZM41.0654 9.136H36.0254L35.0174 12H33.5294L37.7534 0.559999H39.3534L43.5614 12H42.0734L41.0654 9.136ZM36.5054 7.856H40.6014L38.5694 1.888H38.5374L36.5054 7.856ZM44.7208 12V0.559999H49.3608C51.6168 0.559999 53.1368 1.776 53.1368 3.808C53.1368 5.456 52.3528 6.368 51.0888 6.688V6.72C53.6328 7.216 52.7048 11.712 53.2968 11.904V12H51.7448C51.2488 11.52 52.3368 7.376 49.4408 7.376H46.1608V12H44.7208ZM46.1608 1.84V6.096H49.0248C50.2088 6.096 51.6968 5.952 51.6968 3.968C51.6968 1.984 50.2088 1.84 49.0248 1.84H46.1608ZM62.0009 5.328C64.5769 5.968 66.2569 6.4 66.2569 9.008C66.2569 10.672 65.0249 12.224 62.1289 12.224C59.4249 12.224 57.3289 10.784 57.1689 8.16H58.6089C58.7689 9.728 59.7289 10.944 62.1289 10.944C64.1129 10.944 64.8169 10.032 64.8169 9.008C64.8169 7.44 63.9689 7.152 61.4089 6.56C59.6969 6.16 57.6489 5.568 57.6489 3.344C57.6489 1.536 59.0409 0.335999 61.5689 0.335999C64.0009 0.335999 65.6969 1.584 65.8889 3.952H64.4489C64.2409 2.416 63.3769 1.616 61.5689 1.616C59.9529 1.616 59.0889 2.24 59.0889 3.184C59.0889 4.704 60.3209 4.912 62.0009 5.328ZM76.1125 4.336C75.9045 3.248 75.0725 1.616 72.6885 1.616C69.9685 1.616 68.8325 3.968 68.8325 6.272C68.8325 8.592 69.9685 10.944 72.6885 10.944C75.0885 10.944 76.0165 9.312 76.1125 7.872H77.5525C77.2965 10.4 75.5045 12.224 72.6885 12.224C69.5525 12.224 67.3925 9.728 67.3925 6.272C67.3925 2.832 69.5525 0.335999 72.6885 0.335999C75.4885 0.335999 77.2805 2.16 77.5525 4.336H76.1125ZM79.0883 0.559999H80.5283V5.424H86.6403V0.559999H88.0803V12H86.6403V6.704H80.5283V12H79.0883V0.559999ZM95.395 12.224C92.035 12.224 89.795 9.712 89.795 6.272C89.795 2.832 92.035 0.335999 95.395 0.335999C98.755 0.335999 100.995 2.832 100.995 6.272C100.995 9.712 98.755 12.224 95.395 12.224ZM95.395 10.944C98.275 10.944 99.555 8.736 99.555 6.272C99.555 3.808 98.275 1.616 95.395 1.616C92.515 1.616 91.235 3.808 91.235 6.272C91.235 8.736 92.515 10.944 95.395 10.944ZM107.799 12.224C104.439 12.224 102.199 9.712 102.199 6.272C102.199 2.832 104.439 0.335999 107.799 0.335999C111.159 0.335999 113.399 2.832 113.399 6.272C113.399 9.712 111.159 12.224 107.799 12.224ZM107.799 10.944C110.679 10.944 111.959 8.736 111.959 6.272C111.959 3.808 110.679 1.616 107.799 1.616C104.919 1.616 103.639 3.808 103.639 6.272C103.639 8.736 104.919 10.944 107.799 10.944ZM115.036 0.559999H116.476V10.72H122.476V12H115.036V0.559999Z" fill="black"/>
</svg>
